#!OML:ASF E:\Steps\Project 1\Capture day 1\Session 2\Subject.ASF
:FULLY-SPECIFIED
:DEGREES
300
root -1.04357 17.9654 20.6346 -153.127 -10.7083 177.014
lowerback -27.5223 1.28931 -7.1761
upperback -1.80385 3.52941 -1.37272
thorax 12.9496 0.98972 3.81948
lowerneck -3.88851 0.793521 3.73268
upperneck 15.2162 0.274567 -0.618692
head 5.22735 0.082425 -0.814346
rclavicle 9.65348e-015 -9.34288e-015
rhumerus -41.518 -14.2421 -81.4348
rradius 34.2528
rwrist -14.8127
rhand 1.28695 -64.9219
rfingers 7.12502
rthumb 26.8225 813.04
lclavicle 9.65348e-015 -9.34288e-015
lhumerus -26.2983 -5.55927 86.5878
lradius 25.4581
lwrist 0.775602
lhand -22.5236 -12.2152
lfingers 7.12502
lthumb 3.90319 17.7288
rfemur -22.361 2.46904 19.8999
rtibia 5.68916
rfoot -18.883 -4.74419
rtoes -5.68091
lfemur -24.8155 -9.20919 -22.8256
ltibia 7.43045
lfoot -5.28072 -8.01989
ltoes -30.4977
301
root -1.03976 17.9665 20.6399 -153.101 -10.7938 176.986
lowerback -27.5797 1.22254 -7.23274
upperback -1.83464 3.4554 -1.36799
thorax 12.948 0.950466 3.83139
lowerneck -3.85598 0.774169 3.63236
upperneck 15.4077 0.220836 -0.499632
head 5.27986 0.0526241 -0.765091
rclavicle 6.61456e-014 -5.06901e-015
rhumerus -41.2038 -14.7492 -81.0907
rradius 33.5837
rwrist -13.5807
rhand 1.01191 -63.524
rfingers 7.12502
rthumb 26.5593 811.682
lclavicle 6.61456e-014 -5.06901e-015
lhumerus -26.276 -5.54636 86.6411
lradius 25.2024
lwrist 0.751855
lhand -22.4504 -12.0919
lfingers 7.12502
lthumb 3.9738 17.8508
rfemur -22.3709 2.47782 19.9024
rtibia 5.62712
rfoot -18.8908 -4.94478
rtoes -6.1322
lfemur -24.9131 -9.20818 -22.8247
ltibia 7.53724
lfoot -5.20682 -8.15692
ltoes -29.8417
302
root -1.03638 17.9687 20.6431 -153.154 -10.86 177.016
lowerback -27.5542 1.21779 -7.22301
upperback -1.90652 3.43272 -1.39386
thorax 12.8538 0.943631 3.78448
lowerneck -3.77704 0.736586 3.62678
upperneck 15.5981 0.132856 -0.388413
head 5.32409 0.00963121 -0.735979
rclavicle -4.79816e-014 -3.26007e-014
rhumerus -41.2363 -15.5878 -80.7377
rradius 33.0448
rwrist -12.5197
rhand 0.748461 -63.2293
rfingers 7.12502
rthumb 26.3071 811.425
lclavicle -4.79816e-014 -3.26007e-014
lhumerus -26.3946 -5.70759 86.6785
lradius 24.9701
lwrist 0.554855
lhand -22.5224 -11.5707
lfingers 7.12502
lthumb 3.90429 18.3733
rfemur -22.2474 2.30616 20.0032
rtibia 5.45895
rfoot -18.7941 -4.89848
rtoes -6.83316
lfemur -24.8997 -9.20854 -22.7662
ltibia 7.57779
lfoot -5.15883 -8.20027
ltoes -30.2796
303
root -1.03364 17.9719 20.6465 -153.258 -10.9243 177.03
lowerback -27.4836 1.15426 -7.23656
upperback -1.96528 3.33526 -1.38022
thorax 12.7553 0.901675 3.768
lowerneck -3.67122 0.730379 3.56133
upperneck 15.7838 0.0934421 -0.284471
head 5.36307 -0.0141385 -0.696489
rclavicle 4.32357e-015 2.98177e-014
rhumerus -41.1258 -16.0397 -80.5518
rradius 32.2789
rwrist -11.836
rhand 0.535665 -64.3141
rfingers 7.12502
rthumb 26.1033 812.54
lclavicle 4.32357e-015 2.98177e-014
lhumerus -26.4705 -5.60104 86.666
lradius 24.583
lwrist 0.375227
lhand -22.5587 -11.3888
lfingers 7.12502
lthumb 3.86926 18.5559
rfemur -22.0858 2.05484 20.0939
rtibia 5.28226
rfoot -18.5651 -4.72158
rtoes -7.55143
lfemur -24.8093 -9.22618 -22.7394
ltibia 7.60133
lfoot -5.18897 -8.29805
ltoes -30.2098
